<?xml version="1.0" encoding="utf-8"?>
<!-- Generator: Adobe Illustrator 28.0.0, SVG Export Plug-In . SVG Version: 6.00 Build 0)  -->
<svg version="1.1" id="Ebene_1" xmlns="http://www.w3.org/2000/svg" xmlns:xlink="http://www.w3.org/1999/xlink" x="0px" y="0px"
	 viewBox="0 0 114.2 33.7" style="enable-background:new 0 0 114.2 33.7;" xml:space="preserve">
<style type="text/css">
	.st0{fill:#1D1D1B;}
</style>
<path class="st0" d="M27.6,27.8h3.7c-0.4,2.9-3.1,4.2-5.5,4.2c-3.5,0-5.9-2.5-5.9-6c0-3.5,2.4-6,5.7-6c2.5,0,4.7,1.5,5.2,3.6l0,0.1
	H32v-4.9h-1.3V21c-1.3-1.5-3.2-2.3-5.2-2.3c-4.1,0-7.1,3.1-7.1,7.4c0,4.2,3.1,7.3,7.4,7.3c3.5,0,7.1-2.1,7.1-6.6v-0.2h-5.2V27.8z"/>
<polygon class="st0" points="33.4,18.9 33.4,20.2 35.2,20.2 35.2,31.9 33.4,31.9 33.4,33.2 44.9,33.2 44.9,29.4 43.6,29.4 
	43.6,31.9 36.7,31.9 36.7,26.5 42.4,26.5 42.4,25.2 36.7,25.2 36.7,20.2 43.6,20.2 43.6,22.6 44.9,22.6 44.9,18.9 "/>
<polygon class="st0" points="72.5,18.9 72.5,20.2 74.3,20.2 71.3,30.9 68.3,20.2 70,20.2 70,18.9 64.4,18.9 64.4,20.2 66,20.2 
	63.2,30.9 60.1,20.2 61.8,20.2 61.8,18.9 56.8,18.9 56.8,20.2 58.6,20.2 62.5,33.2 62.5,33.3 63.7,33.3 67.1,20.4 70.6,33.3 
	71.8,33.3 75.6,20.2 77.4,20.2 77.4,18.9 "/>
<path class="st0" d="M55.1,22.5c0,1.6-1.1,2.4-3.2,2.4h-2.7v-4.8h3.2C54,20.2,55.1,21.1,55.1,22.5 M53.5,26.1c2-0.4,3.1-1.7,3.1-3.6
	c0-2.2-1.6-3.6-4-3.6h-7v1.3h2v11.7h-2v1.3h5.5v-1.3h-1.9v-5.7h2.8l3.1,6.9h2.9v-1.3h-1.8L53.5,26.1z"/>
<polygon class="st0" points="78.6,18.9 78.6,20.2 80.3,20.2 80.3,31.9 78.6,31.9 78.6,33.2 83.5,33.2 83.5,31.9 81.8,31.9 
	81.8,20.2 83.5,20.2 83.5,18.9 "/>
<polygon class="st0" points="94.3,18.9 94.3,20.2 96.3,20.2 96.3,30.8 88.6,19 88.5,18.9 85,18.9 85,20.2 86.8,20.2 86.8,31.9 
	85,31.9 85,33.2 90.1,33.2 90.1,31.9 88.1,31.9 88.1,20.9 96.3,33.3 97.6,33.3 97.6,20.2 99.4,20.2 99.4,18.9 "/>
<path class="st0" d="M109,26.5v1.3h3.7c-0.4,2.9-3.1,4.2-5.5,4.2c-3.5,0-5.9-2.5-5.9-6c0-3.5,2.4-6,5.7-6c2.5,0,4.7,1.5,5.2,3.6
	l0,0.1h1.2v-4.9h-1.3V21c-1.3-1.5-3.2-2.3-5.2-2.3c-4.1,0-7.1,3.1-7.1,7.4c0,4.2,3.1,7.3,7.4,7.3c3.5,0,7.1-2.1,7.1-6.6v-0.2H109z"
	/>
<path class="st0" d="M1,0C0.5,0,0,0.5,0,1v13.5c0,0.6,0.5,1,1,1h13.5c0.6,0,1-0.5,1-1V1c0-0.6-0.5-1-1-1H1z"/>
<path class="st0" d="M1,18.2c-0.6,0-1,0.5-1,1v13.5c0,0.6,0.5,1,1,1h13.5c0.6,0,1-0.5,1-1V19.2c0-0.6-0.5-1-1-1H1z"/>
<path class="st0" d="M19.2,0c-0.6,0-1,0.5-1,1v13.5c0,0.6,0.5,1,1,1h13.5c0.6,0,1-0.5,1-1V1c0-0.6-0.5-1-1-1H19.2z"/>
</svg>
