<?xml version="1.0" encoding="utf-8"?>
<!-- Generator: Adobe Illustrator 28.0.0, SVG Export Plug-In . SVG Version: 6.00 Build 0)  -->
<svg version="1.1" id="Ebene_1" xmlns="http://www.w3.org/2000/svg" xmlns:xlink="http://www.w3.org/1999/xlink" x="0px" y="0px"
	 viewBox="0 0 574.4 205.6" style="enable-background:new 0 0 574.4 205.6;" xml:space="preserve">
<g>
	<path d="M143.3,168L109,106.3c15.6-5.5,33.5-21.2,33.5-50.4C142.5,24.7,121.4,0,84.1,0H0v168h43.3V111h22.2L93.7,168H143.3
		L143.3,168z M98.5,55.4c0,11.6-9.6,18.9-20.9,18.9H43.3V36.5h34.2C88.9,36.5,98.5,43.8,98.5,55.4L98.5,55.4z"/>
	<path d="M194.7,168v-56.9h40.8c37.7,0,58.4-24.9,58.4-55.1c0-30.5-20.6-55.9-58.4-55.9h-84.1V168H194.7L194.7,168z M249.8,55.7
		c0,11.3-8.6,18.6-20.1,18.6h-35V36.6h35C241.2,36.6,249.8,44.1,249.8,55.7L249.8,55.7z"/>
	<polygon points="411.6,168 411.6,130.2 345.2,130.2 345.2,0 301.9,0 301.9,168 411.6,168 	"/>
	<path d="M574.4,129.9V0h-135c-10.9,0-19.8,8.8-19.8,19.8v148.2h79.2v37.6l37.3-37.3 M462.1,82.7c0,19.9,16.1,36,36,36
		c14.2,0,26.5-8.3,32.3-20.2h30.6c-7,28.2-32.5,49.1-62.9,49.1c-35.8,0-64.9-29-64.9-64.8c0-35.8,29-64.9,64.9-64.9
		c30.4,0,55.8,20.9,62.9,49h-30.6C524.4,55,512.2,46.7,498,46.7C478.2,46.7,462.1,62.8,462.1,82.7L462.1,82.7z"/>
</g>
</svg>
