<?xml version="1.0" encoding="utf-8"?>
<!-- Generator: Adobe Illustrator 28.0.0, SVG Export Plug-In . SVG Version: 6.00 Build 0)  -->
<svg version="1.1" id="Ebene_1" xmlns="http://www.w3.org/2000/svg" xmlns:xlink="http://www.w3.org/1999/xlink" x="0px" y="0px"
	 viewBox="0 0 1403.4 646.5" style="enable-background:new 0 0 1403.4 646.5;" xml:space="preserve">
<path d="M250.4,226.5c0-20.7-4.5-38.9-13.5-54.8s-22.4-28.3-40.2-37.3s-39.5-13.5-64.9-13.5H0v316.9h88.1v-107h43.6
	c25.8,0,47.6-4.7,65.4-14.2c17.8-9.4,31.2-22,40-37.8C245.9,263.1,250.4,245.7,250.4,226.5L250.4,226.5z M160.5,226.5
	c0,22.8-12.4,34.2-37.3,34.2H88.1v-68.8h35.1C148,191.9,160.5,203.4,160.5,226.5L160.5,226.5z"/>
<polygon points="361.5,120.9 273.4,120.9 273.4,437.8 450.5,437.8 474,370.3 361.5,370.3 "/>
<path d="M804.1,437.8L689,120.9H587.5L471.9,437.8h92.6l17.1-51.7H694l17.1,51.7H804.1L804.1,437.8z M672,318.6h-67.9l33.7-102.5
	L672,318.6L672,318.6z"/>
<polygon points="1115.1,120.9 1027,120.9 1027,300.2 909.7,120.9 821.6,120.9 821.6,437.8 909.7,437.8 909.7,260.6 1027,437.8 
	1115.1,437.8 "/>
<path d="M462,479.2l-24.1,120.6l-28.3-120.6h-44.4l-29.5,120.6l-23.8-120.6h-43.2l42,165.6h48.8l27.4-109l26.4,109h48.8l43.2-165.6
	L462,479.2L462,479.2z M594.4,646.5c15.6,0,29.8-3.6,42.7-10.8s23.1-17.3,30.7-30.3s11.3-27.6,11.3-43.8s-3.7-30.8-11.2-43.7
	c-7.5-12.9-17.7-23-30.7-30.2s-27.2-10.9-42.8-10.9s-29.8,3.6-42.8,10.9c-13,7.2-23.3,17.3-30.9,30.2c-7.6,12.9-11.4,27.5-11.4,43.7
	s3.8,30.8,11.4,43.8s17.9,23.1,30.9,30.3C564.6,642.9,578.8,646.5,594.4,646.5L594.4,646.5L594.4,646.5z M594.4,609.7
	c-13.4,0-24-4.4-32-13.1c-7.9-8.7-11.9-20.4-11.9-35c0-14.8,4-26.5,11.9-35.2s18.6-13,32-13c13.2,0,23.8,4.4,31.7,13.1
	c7.9,8.7,11.9,20.4,11.9,35c0,14.5-4,26.1-11.9,34.9C618.2,605.3,607.6,609.7,594.4,609.7L594.4,609.7L594.4,609.7z M829.6,644.9
	l-38.2-65.6c12.1-3.6,21.3-9.8,27.5-18.4c6.2-8.7,9.3-18.5,9.3-29.5c0-9.8-2.3-18.6-6.8-26.5c-4.6-7.9-11.4-14.2-20.7-18.8
	c-9.2-4.6-20.3-6.8-33.4-6.8h-67.7v165.6h40.3v-62.5h9.7l34.5,62.5H829.6L829.6,644.9z M739.9,512.8h25c7.4,0,12.9,1.8,16.6,5.4
	s5.5,8.6,5.5,14.9c0,6.6-1.8,11.7-5.5,15.3s-9.2,5.4-16.6,5.4h-25V512.8L739.9,512.8z M995.6,644.9l-66.5-84.5l64.2-81.2h-47.4
	l-55.2,72.7v-72.7h-40.3v165.6h40.3v-73.1l55.7,73.1L995.6,644.9L995.6,644.9z M1060.6,646.5c12.4,0,23.2-2.3,32.3-6.8
	c9.1-4.6,16.1-10.7,20.9-18.4s7.2-16.3,7.2-25.7c0-9.9-2.4-18-7.3-24.3s-10.7-11.1-17.3-14.4c-6.7-3.3-15.4-6.8-26.1-10.4
	c-10.7-3.5-18.6-6.7-23.6-9.7s-7.6-7.2-7.6-12.5c0-4.9,1.5-8.6,4.5-11.2c3-2.6,6.9-3.9,11.8-3.9c5.7,0,10.3,1.5,13.9,4.6
	c3.6,3.1,5.6,7.3,5.9,12.6h43.7c-0.8-15.6-6.8-27.7-17.9-36.5s-25.9-13.1-44.1-13.1c-17.9,0-32.5,4.4-43.7,13.1
	s-16.8,20.8-16.8,36.2c0,10.4,2.4,18.8,7.3,25.2c4.9,6.5,10.7,11.3,17.5,14.6s15.5,6.6,26.2,9.9c7.4,2.2,13.1,4.2,17.1,5.9
	s7.4,3.9,10.1,6.6s4.1,6.1,4.1,10.2c0,4.9-1.7,8.7-5.2,11.4s-8.2,4.1-14.2,4.1c-5.8,0-10.5-1.6-14.2-4.8c-3.6-3.2-5.8-7.9-6.4-14
	h-43c0.3,10.8,3.3,20.1,9.1,27.8c5.7,7.7,13.4,13.5,23,17.5C1037.6,644.6,1048.4,646.5,1060.6,646.5L1060.6,646.5L1060.6,646.5z"/>
<path d="M1226.5,0c-35.3,0-63.9,28.6-63.9,63.9v177h177c35.3,0,63.9-28.6,63.9-63.9V0H1226.5z M1369.8,111.5
	c-6.4,30-25.9,58.2-54.2,70.1c-14.2,6-29.9,7.7-45.3,9c-15.4,1.2-31,2.2-45.8,6.6s-29,13-36.9,26.3c10.1-25.6,26.9-48.5,48-66.2
	c15.6-3.9,26.7-4.4,40.5,5.7c-1.5,1.8-2,4.4-1.1,6.8c1.3,3.6,5.3,5.4,8.9,4c3.6-1.3,5.3-5.3,4-8.9c-1.3-3.6-5.3-5.4-8.9-4
	c-0.6,0.2-1.1,0.5-1.6,0.9c-10.7-10.6-19.3-13-32.4-11.8c10.3-7.5,21.4-13.7,33.2-18.6c3.3-1.3,6.6-2.6,10-3.8
	c11-1.5,20.4,0.1,30.7,6.1c-1,1.8-1.3,3.9-0.5,6c1.3,3.6,5.3,5.4,8.9,4c3.6-1.3,5.4-5.3,4-8.9c-1.3-3.6-5.3-5.4-8.9-4
	c-1,0.4-1.8,1-2.5,1.7c-6.8-5.3-13.2-7.9-21-8.7c8.8-3.2,17.6-6.5,25.8-11.1c10.9-6.2,19.2-10.1,23.2-18.8c0.6,0.1,1.2,0.2,1.8,0.2
	c4.4,0,7.9-3.6,7.9-7.9c0-4.4-3.6-7.9-7.9-7.9c-4.4,0-7.9,3.6-7.9,7.9c0,3.2,1.8,5.8,4.4,7.1c-5.6,10-14.5,12.6-48.8,24.3
	c-3.3,1.1-6.6,2.2-9.8,3.4c6.5-6.1,11.1-13.3,14.2-22.2c1.6,0.5,3.3,0.4,4.9-0.2c4-1.6,6.1-6.2,4.5-10.2s-6.1-6.1-10.2-4.5
	c-4,1.6-6.1,6.1-4.5,10.2c0.7,1.9,2.1,3.4,3.8,4.2c-6.3,12.9-15.5,22.6-26.9,28.2c-6.9,2.8-13.7,5.8-20.4,9.2
	c5.7-7.8,8.9-16.2,10.1-26c1.3,0.2,2.6,0.1,3.9-0.4c4-1.6,6.1-6.1,4.5-10.2c-1.6-4-6.2-6.1-10.2-4.5c-4,1.6-6.1,6.1-4.5,10.2
	c0.9,2.2,2.6,3.7,4.6,4.5c-3,12.9-9.1,23.7-18,31.6c-3.8,2.2-7.6,4.5-11.3,7c-9.6,6.5-18.4,14.5-25.8,23.5
	c-0.3-9.5-0.2-19.1,1.2-28.5c2.1-14.3,7.4-28.5,17.2-39.1c12.8-13.8,31.9-19.9,50.3-23.8c18.5-3.9,37.6-6.3,54.4-14.8
	c16.8-8.5,31.3-25.1,30.6-43.9C1371,50,1376.4,81.6,1369.8,111.5z"/>
</svg>
