<?xml version="1.0" encoding="utf-8"?>
<!-- Generator: Adobe Illustrator 28.0.0, SVG Export Plug-In . SVG Version: 6.00 Build 0)  -->
<svg version="1.1" id="Ebene_1" xmlns="http://www.w3.org/2000/svg" xmlns:xlink="http://www.w3.org/1999/xlink" x="0px" y="0px"
	 viewBox="0 0 766.2 291.4" style="enable-background:new 0 0 766.2 291.4;" xml:space="preserve">
<style type="text/css">
	.st0{fill:#1D1D1B;}
</style>
<g>
	<path class="st0" d="M753.8,72.3c16.5-16.5,16.5-43.4,0-59.9c-16.5-16.5-43.4-16.5-59.9,0c-16.5,16.5-16.5,43.4,0,59.9
		C710.4,88.8,737.2,88.8,753.8,72.3L753.8,72.3z M735.8,47.8l-6-6l9.8-9.8c2.1-2.1,2.3-4.4,0.6-6.1c-1.8-1.8-4-1.6-6.1,0.6l-9.8,9.8
		l-6-6l10-10c5.3-5.3,12-5.3,17.4,0.1c5.4,5.4,5.4,12.1,0.1,17.4L735.8,47.8L735.8,47.8z M719.3,64.3c-5.3,5.3-12,5.3-17.4-0.1
		c-5.4-5.4-5.4-12-0.1-17.4l10-10l5.9,5.9l-9.8,9.8c-2.1,2.1-2.3,4.4-0.6,6.1c1.8,1.8,4,1.6,6.1-0.6l9.8-9.8l6,5.9L719.3,64.3
		L719.3,64.3z"/>
	<path class="st0" d="M181.9,52.2c0-27.2-17.3-41.3-45.4-41.3H91.4V113c11.2,3.6,21.1,10.3,29.9,20.5V91.7l27.3,49.9h36.1
		l-32.5-52.8C170.9,84.1,181.9,70.4,181.9,52.2L181.9,52.2z M151.4,52.2c0,9.6-6.3,15.5-16.4,15.5h-13.7v-31H135
		C145.1,36.6,151.4,42.6,151.4,52.2L151.4,52.2z M121.3,133.5L121.3,133.5L121.3,133.5L121.3,133.5L121.3,133.5z"/>
	<path class="st0" d="M233.3,145.9c-26,0-41.8-15.9-41.8-41.5V48H220v55.4c0,10.3,4.9,16.1,13.3,16.1c8.5,0,13.3-5.8,13.3-16.1V48
		h28.5v56.5C275.2,130.1,259.3,145.9,233.3,145.9L233.3,145.9z"/>
	<path class="st0" d="M329.4,45.7c26,0,41.8,15.9,41.8,41.5v54.4h-28.5V88.2c0-10.3-4.9-16.1-13.3-16.1s-13.3,5.8-13.3,16.1v53.4
		h-28.5V87.1C287.6,61.5,303.4,45.7,329.4,45.7L329.4,45.7z"/>
	<path class="st0" d="M637.5,45.7c26,0,41.8,15.9,41.8,41.5v54.4h-28.5V88.2c0-10.3-4.9-16.1-13.3-16.1s-13.3,5.8-13.3,16.1v53.4
		h-28.5V87.1C595.7,61.5,611.6,45.7,637.5,45.7L637.5,45.7z"/>
	<path class="st0" d="M490.5,96.2c0-30.1,21.6-50.5,49.4-50.5c26.2,0,50.1,17.9,46.2,57.9h-68.7c2.7,11.4,11.9,18.2,24.5,18.2
		c10.1,0,18.8-4.3,25.8-13.2l18.4,15.3c-10.6,14.1-25.8,22-44.7,22C510.8,145.9,490.5,125.4,490.5,96.2L490.5,96.2z M559.7,83.9
		c-2.2-9.7-9.4-15.2-20-15.2c-10.8,0-18.9,6-22,15.2H559.7L559.7,83.9z"/>
	<path class="st0" d="M172.6,149.9h12.3v25.6h-9.6c-5.8,0-8.3,2.5-8.3,8.3v61.7h-28.5v-61C138.5,160.6,151.3,149.9,172.6,149.9
		L172.6,149.9z"/>
	<path class="st0" d="M184.4,198.6c0-28.2,21.8-48.2,48.9-48.2c27.1,0,48.9,20.1,48.9,48.2c0,28.2-21.8,48.2-48.9,48.2
		C206.2,246.8,184.4,226.8,184.4,198.6L184.4,198.6z M233.3,221.4c12.3,0,21.6-9.2,21.6-22.8c0-13.7-9.3-22.8-21.6-22.8
		c-12.3,0-21.6,9.2-21.6,22.8C211.7,212.3,221,221.4,233.3,221.4L233.3,221.4z"/>
	<path class="st0" d="M329.4,247.9c-26,0-41.8-15.9-41.8-41.5v-54.4h28.5v53.4c0,10.3,4.9,16.1,13.3,16.1c8.5,0,13.3-5.8,13.3-16.1
		v-53.4h28.5v54.4C371.3,232,355.4,247.9,329.4,247.9L329.4,247.9z"/>
	<path class="st0" d="M481.8,143.6V67.3V4.2V4.1h-27.9v49.7c-6.6-5.1-15.3-7.6-24.4-7.6c-25.8,0-47.6,20.2-47.6,49.6
		c0,29.4,21.8,49.6,47.6,49.6c10.6,0,21.1-3.6,27.6-10.5l0.2,8.7H481.8L481.8,143.6z M455.8,95.8c0,14.4-9.6,23.6-22.5,23.6
		c-13.2,0-22.9-9.2-22.9-23.6c0-14.4,9.7-23.6,22.9-23.6C446.2,72.2,455.8,81.4,455.8,95.8L455.8,95.8z"/>
	<path class="st0" d="M383.8,151.9v76.3v63.1v0.1h27.9v-49.7c6.6,5.1,15.3,7.6,24.4,7.6c25.8,0,47.6-20.2,47.6-49.6
		c0-29.4-21.8-49.6-47.6-49.6c-10.6,0-21.1,3.6-27.6,10.5l-0.2-8.7H383.8L383.8,151.9z M409.8,199.7c0-14.4,9.6-23.6,22.5-23.6
		c13.2,0,22.9,9.2,22.9,23.6c0,14.4-9.7,23.6-22.9,23.6C419.3,223.3,409.8,214.1,409.8,199.7L409.8,199.7z"/>
	<path class="st0" d="M0,178.8c0-40.6,29-69.1,69.1-69.1c20.9,0,38,7.2,52.2,23.8l-20.7,20.6c-7.4-9.9-18.9-16.1-31.6-16.1
		C46,138,30.7,155,30.7,179c0,24.7,16.4,40.9,38.4,40.9c18.6,0,31.2-11,33.7-26.3H64v-26.3h70.7v11.5c0,41.1-25.8,69.1-65.7,69.1
		C29.6,247.9,0,219.4,0,178.8L0,178.8z"/>
</g>
</svg>
