<?xml version="1.0" encoding="utf-8"?>
<!-- Generator: Adobe Illustrator 28.0.0, SVG Export Plug-In . SVG Version: 6.00 Build 0)  -->
<svg version="1.1" id="Ebene_1" xmlns="http://www.w3.org/2000/svg" xmlns:xlink="http://www.w3.org/1999/xlink" x="0px" y="0px"
	 viewBox="0 0 1639 510.2" style="enable-background:new 0 0 1639 510.2;" xml:space="preserve">
<g>
	<path d="M761.6,196l6,7.5l-2.9-9c-15-46.1-14.7-83.9,0.9-112.5c17.1-31.2,47.2-41.5,56.1-43.9c2.8-0.8,6.1-1.4,9.6-2.1
		c14.6-2.8,32.8-6.3,30.6-24.3c-0.7-5.6-5.8-9.5-14.2-11c-13.4-2.4-32.6,1.8-49.9,10.8c-15.3,8-36.7,23.6-52,52.4
		c-18.5,34.9-13.2,68.9-5.5,91.4C748.6,179.5,761.1,195.3,761.6,196L761.6,196z"/>
	<path d="M968.2,157.4c-16.4-35.9-46.9-52.8-69.6-60.7c-24.5-8.6-44.9-8.7-45.8-8.7h-9.6l9,3.3c46.1,16.9,76.1,40.5,89.2,70.3
		c14.3,32.5,3.8,62.1,0.3,70.5c-1.1,2.7-2.7,5.6-4.3,8.7c-6.8,13-15.3,29.2,0.4,38.6c1.6,1,3.5,1.5,5.4,1.5c3.8,0,8-1.9,12.3-5.6
		c10.2-8.9,18.8-26.2,22.3-45.3C980.9,213.2,981.8,187.1,968.2,157.4L968.2,157.4z"/>
	<path d="M885.1,212.6l-7.3,6.2c-37.1,31.8-72.5,46.5-105.4,43.6c-35.8-3.1-57.3-26.3-63.1-33.4c-1.8-2.3-3.7-5-5.7-7.9
		c-8.4-12.1-18.8-27.2-34.7-18.1c-5,2.8-6.6,9-4.7,17.3c3.1,13.1,14.5,28.7,29.8,40.9c13.5,10.7,36.5,23.9,69.4,26.3
		c2.9,0.2,5.7,0.3,8.5,0.3c35.6,0,62.3-16.8,78.9-31.5c19.3-17.1,29.2-34.7,29.6-35.4L885.1,212.6L885.1,212.6z"/>
	<path d="M765.7,145.2c-0.4,22.3,5.1,38.9,5.4,39.6l3,9l0.3-9.5c1.5-42,13-72.9,34.3-91.7c23.3-20.5,51-20.2,58.9-19.6
		c2.5,0.2,5.4,0.6,8.5,1.1c12.9,2,29,4.4,32.5-11.2c1.1-4.8-2-9.7-8.5-13.4c-19.3-11-65.3-11.5-102.6,22.3
		C772,95,766.1,124.6,765.7,145.2L765.7,145.2z"/>
	<path d="M929.2,193.7c-2.7-34.2-22.6-56.9-38.9-70c-17.6-14.1-34.3-20.1-35-20.4l-9.1-3.2l7.4,6.1c32.7,27.1,50.2,55.1,52,83.2
		c2,30.6-15.4,51.8-20.8,57.6c-1.7,1.8-3.9,3.8-6.1,5.9c-9.6,8.8-21.5,19.6-11.2,32.1c1.9,2.3,4.7,3.4,8.1,3.4c2.4,0,5-0.6,7.9-1.7
		C904.2,278.6,933.1,243.5,929.2,193.7L929.2,193.7z"/>
	<path d="M751,237.3c13.6,6,26.9,8.2,39.1,8.2c16.3,0,30.9-4,42-8.5c21-8.5,34.3-20,34.9-20.5l7.2-6.3l-9,3.5
		c-39.8,15.3-73.2,17.1-99.1,5.2c-28.3-12.9-39-38-41.6-45.4c-0.8-2.4-1.6-5.1-2.3-8.1c-3.3-12.4-7.3-27.9-23.3-25
		c-4.9,0.9-8.3,5.6-9.2,13C687.1,175.2,704.8,217,751,237.3L751,237.3z"/>
	<path d="M90.1,508.7L118.9,407h0.7l30.3,101.6h39.6l50-155.6h-39l-31.2,104.7h-0.9l-30.8-105.2H102L72.4,458.8h-0.9L41,353H0
		l51.8,155.6h38.3V508.7z M335.3,508c11.5,0,21.1-2,28.9-6c7.7-4,13.6-9.6,17.6-16.7c4-7.2,6-15.5,6-24.9c0-7.5-2.1-14.2-6.3-20
		c-4.2-5.8-9.6-9.9-16.3-12.3v-0.4c6.3-3.7,10.7-8.5,13-14.4s3.4-12,3.4-18.2c0-8.1-1.8-15.3-5.4-21.7c-3.6-6.3-9-11.3-16.2-14.9
		s-16.1-5.4-26.9-5.4h-81v155h83.2V508z M291,442.5h38.7c6.1,0,10.6,1.4,13.6,4.1s4.5,6.8,4.5,12.3c0,6.2-1.7,10.6-5.2,13.2
		s-8.6,3.9-15.4,3.9H291V442.5L291,442.5z M291,384h34.5c6.8,0,11.7,1.3,14.7,3.9s4.5,6.5,4.5,11.6c0,5.3-1.4,9.3-4.3,11.8
		c-2.9,2.6-7,3.9-12.5,3.9h-37L291,384L291,384z M508,508.1c7.4-1.4,14.5-3.3,21.3-5.6c6.7-2.4,12.6-5,17.6-8v-75h-73.1v29.2h38.1
		v24.8c-4.3,0.9-8.5,1.5-12.7,2c-4.2,0.4-8.3,0.7-12.3,0.7c-10.3,0-19.1-1.6-26.2-4.8c-7.2-3.2-12.6-8.1-16.3-14.8
		c-3.7-6.7-5.5-15.3-5.5-25.8c0-10.8,2-19.4,6-26s9.5-11.4,16.6-14.4s15.5-4.5,25.2-4.5c5,0,10.3,0.3,15.9,1s11.5,1.6,17.7,2.8
		l8.9,1.8l6.2-29.2l-7.1-2.9c-6.9-2.8-14-4.9-21.3-6.3c-7.2-1.4-14.5-2.1-21.7-2.1c-12,0-23.2,1.7-33.8,5.1
		c-10.6,3.4-19.7,8.4-27.6,15.2c-7.8,6.7-13.9,15-18.4,24.9c-4.4,9.9-6.6,21.3-6.6,34.3c0,16.4,3.4,30.6,10.3,42.5
		c6.9,12,16.7,21.2,29.7,27.7c12.9,6.5,28.4,9.7,46.6,9.7C493,510.2,500.5,509.5,508,508.1L508,508.1z M672.1,508v-46h36.5
		c11.2,0,21-2.2,29.3-6.6s14.8-10.8,19.5-19c4.6-8.3,7-18,7-29.2c0-11.1-2.2-20.6-6.5-28.7c-4.4-8-10.7-14.3-18.9-18.7
		c-8.3-4.4-18.2-6.6-29.9-6.6h-75.9v155h38.9V508z M672.1,385.8h28.1c7.8,0,13.8,1.6,17.9,4.8c4.1,3.2,6.2,8.7,6.2,16.5
		s-2.1,13.4-6.2,16.7c-4.1,3.3-10.1,5-17.9,5h-28.1V385.8L672.1,385.8z M898.3,500.2c12.1-6.6,21.5-15.9,28.2-27.9
		s10.1-25.9,10.1-41.8s-3.2-29.8-9.7-41.7c-6.5-11.9-15.8-21.2-27.8-27.9c-12-6.7-26.3-10.1-42.8-10.1c-15.9,0-30,3.3-42.1,10
		c-12.1,6.6-21.5,15.9-28.2,27.8s-10.1,25.8-10.1,41.7c0,15.9,3.2,29.9,9.7,41.8c6.5,12,15.8,21.3,27.8,28s26.3,10.1,42.8,10.1
		C872.2,510.2,886.2,506.9,898.3,500.2L898.3,500.2z M834.6,469.6c-6.1-3-10.7-7.7-13.9-14.2c-3.2-6.4-4.9-14.7-4.9-24.9
		c0-10.3,1.7-18.7,5-25s8-11,14.1-14.1c6-3,13.2-4.5,21.5-4.5c8.4,0,15.6,1.5,21.7,4.5c6,3,10.7,7.7,13.9,14.1
		c3.2,6.3,4.9,14.6,4.9,24.8c0,10.2-1.7,18.5-5.1,25c-3.4,6.5-8.1,11.3-14.1,14.3s-13.1,4.5-21.4,4.5
		C847.8,474.1,840.6,472.6,834.6,469.6L834.6,469.6z M1071.8,500.2c12.1-6.6,21.5-15.9,28.2-27.9s10.1-25.9,10.1-41.8
		s-3.2-29.8-9.7-41.7c-6.5-11.9-15.8-21.2-27.8-27.9c-12-6.7-26.3-10.1-42.8-10.1c-15.9,0-30,3.3-42.1,10
		c-12.1,6.6-21.5,15.9-28.2,27.8s-10.1,25.8-10.1,41.7c0,15.9,3.2,29.9,9.7,41.8c6.5,12,15.8,21.3,27.8,28s26.3,10.1,42.8,10.1
		C1045.6,510.2,1059.7,506.9,1071.8,500.2L1071.8,500.2z M1008,469.6c-6-3-10.7-7.7-13.9-14.2c-3.2-6.4-4.9-14.7-4.9-24.9
		c0-10.3,1.7-18.7,5-25s8-11,14.1-14.1c6.1-3,13.2-4.5,21.5-4.5c8.4,0,15.6,1.5,21.7,4.5s10.7,7.7,13.9,14.1
		c3.2,6.3,4.9,14.6,4.9,24.8c0,10.2-1.7,18.5-5.1,25s-8.1,11.3-14.1,14.3s-13.1,4.5-21.4,4.5C1021.3,474.1,1014.1,472.6,1008,469.6
		L1008,469.6z M1245.6,508v-34.1H1169V353h-39v155H1245.6L1245.6,508z M1302.2,508V353h-39v155H1302.2L1302.2,508z M1364.3,508
		v-89.9h0.4l73.7,89.9h32.3V353H1432v86.6h-0.4l-71.5-86.6h-34.5v155H1364.3L1364.3,508z M1600.2,508.1c7.4-1.4,14.5-3.3,21.2-5.6
		c6.7-2.4,12.6-5,17.6-8v-75h-73v29.2h38.1v24.8c-4.3,0.9-8.5,1.5-12.7,2c-4.2,0.4-8.3,0.7-12.3,0.7c-10.3,0-19.1-1.6-26.2-4.8
		c-7.2-3.2-12.6-8.1-16.3-14.8c-3.7-6.7-5.5-15.3-5.5-25.8c0-10.8,2-19.4,6-26s9.5-11.4,16.6-14.4s15.5-4.5,25.2-4.5
		c5,0,10.3,0.3,15.9,1s11.5,1.6,17.7,2.8l8.9,1.8l6.2-29.2l-7.1-2.9c-6.9-2.8-14-4.9-21.2-6.3s-14.5-2.1-21.7-2.1
		c-11.9,0-23.2,1.7-33.8,5.1c-10.5,3.4-19.7,8.4-27.6,15.2c-7.8,6.7-14,15-18.4,24.9s-6.6,21.3-6.6,34.3c0,16.4,3.4,30.6,10.3,42.5
		c6.9,12,16.8,21.2,29.7,27.7c12.9,6.5,28.5,9.7,46.6,9.7C1585.3,510.2,1592.7,509.5,1600.2,508.1L1600.2,508.1z"/>
</g>
</svg>
