<?xml version="1.0" encoding="utf-8"?>
<!-- Generator: Adobe Illustrator 28.0.0, SVG Export Plug-In . SVG Version: 6.00 Build 0)  -->
<svg version="1.1" id="Ebene_1" xmlns="http://www.w3.org/2000/svg" xmlns:xlink="http://www.w3.org/1999/xlink" x="0px" y="0px"
	 viewBox="0 0 614.3 526.2" style="enable-background:new 0 0 614.3 526.2;" xml:space="preserve">
<style type="text/css">
	.st0{fill:none;}
	.st1{display:none;fill:#868686;}
	.st2{font-family:'Comfortaa-Regular';}
	.st3{font-size:60.7638px;}
</style>
<path d="M601.3,526.2H13c-7.2,0-13-5.8-13-13V13C0,5.8,5.8,0,13,0h588.3c7.2,0,13,5.8,13,13v500.2
	C614.3,520.4,608.5,526.2,601.3,526.2z M13,10c-1.7,0-3,1.4-3,3v500.2c0,1.7,1.4,3,3,3h588.3c1.7,0,3-1.4,3-3V13c0-1.7-1.4-3-3-3H13
	z"/>
<path d="M68,210.4V93.6c0-2.2,0.7-4,2.1-5.5c1.4-1.4,3.2-2.1,5.5-2.1H112c9.5,0,17.9,2,25.3,5.9c7.4,4,13.2,9.5,17.4,16.7
	c4.2,7.1,6.3,15.3,6.3,24.4c0,10-2.7,18.8-8.1,26.3c-5.4,7.5-12.7,12.9-21.9,16.2l32,51.1c1.2,1.9,1.8,3.7,1.8,5.3
	c0,1.9-0.7,3.5-2.1,4.7c-1.4,1.2-3.3,1.8-5.7,1.8c-1.6,0-2.9-0.3-3.9-1c-1-0.6-1.9-1.6-2.7-2.9l-35.1-55.8H112H83.2v31.8 M112,164
	c6.5,0,12.4-1.3,17.6-4c5.3-2.7,9.4-6.3,12.3-11c2.9-4.7,4.4-10,4.4-16c0-6.2-1.5-11.8-4.4-16.8c-2.9-4.9-7-8.8-12.2-11.5
	c-5.2-2.7-11.1-4.1-17.7-4.1H83.2V164H112z"/>
<path d="M286.3,136.2c1.4,1.4,2.1,3.2,2.1,5.4v91.6c0,2.2-0.7,4-2.1,5.5c-1.4,1.4-3.3,2.1-5.5,2.1c-2.2,0-4-0.7-5.4-2.1
	c-1.4-1.4-2-3.2-2-5.5v-6.6c-4.3,4.8-9.5,8.6-15.6,11.3c-6.1,2.7-12.7,4.1-19.9,4.1c-9.2,0-17.5-1.9-24.9-5.8
	c-7.3-3.9-13.1-9.6-17.3-17.1c-4.2-7.5-6.2-16.4-6.2-26.8v-50.7c0-2.1,0.7-3.8,2.1-5.3c1.4-1.4,3.2-2.1,5.3-2.1c2.2,0,4,0.7,5.5,2.1
	c1.4,1.4,2.1,3.2,2.1,5.3v50.7c0,11.6,3.2,20.4,9.7,26.4c6.4,6,14.8,9.1,25.2,9.1c6.4,0,12.1-1.2,17.3-3.7
	c5.1-2.5,9.2-5.9,12.2-10.2c3-4.4,4.5-9.2,4.5-14.5v-57.7c0-2.2,0.7-4,2-5.4c1.4-1.4,3.1-2,5.4-2
	C283.1,134.2,284.9,134.9,286.3,136.2z"/>
<path d="M406.1,140.3c8,4.7,14.3,11.2,18.9,19.5c4.6,8.3,6.9,17.4,6.9,27.6s-2.4,19.4-7.1,27.7c-4.7,8.3-11.2,14.8-19.5,19.6
	c-8.3,4.7-17.4,7.1-27.6,7.1c-10.1,0-19.3-2.4-27.6-7.1c-8.3-4.7-14.8-11.3-19.5-19.6c-4.7-8.3-7.1-17.5-7.1-27.7V96
	c0-0.8,0.1-1.4,0.2-1.8v1.9c0-2.2,0.7-4,2-5.5c1.4-1.4,3.1-2.1,5.4-2.1c2.2,0,4,0.7,5.5,2.1c1.4,1.4,2.1,3.3,2.1,5.5v57.1
	c4.5-6.2,10.3-11.1,17.4-14.7c7-3.6,14.7-5.4,23.2-5.4C389.2,133.2,398.1,135.6,406.1,140.3z M397.9,222.8c6-3.6,10.8-8.4,14.2-14.6
	c3.4-6.2,5.2-13.1,5.2-20.8c0-7.7-1.7-14.6-5.2-20.8c-3.4-6.2-8.2-11-14.2-14.5c-6-3.5-12.8-5.3-20.2-5.3c-10.3,0-19,3.3-26.2,9.7
	c-7.2,6.5-11.5,14.8-12.8,25c0,0.4-0.1,0.7-0.2,1c-0.1,1-0.2,2.7-0.2,4.9c0,7.7,1.7,14.6,5.2,20.8c3.4,6.2,8.2,11,14.1,14.6
	c6,3.6,12.7,5.4,20.1,5.4C385.1,228.2,391.9,226.4,397.9,222.8z"/>
<path d="M532.3,139.9c7.4,4.5,13.2,10.7,17.3,18.6c4.1,7.9,6.1,17,6.1,27.1c0,2.1-0.7,3.7-1.9,5c-1.3,1.2-3,1.9-5.1,1.9h-78.8
	c1,10.7,5.2,19.3,12.5,25.9c7.3,6.6,16.4,9.9,27.3,9.9c4.7,0,9.4-0.8,14.1-2.4c4.7-1.6,8.5-3.7,11.4-6.1c1.7-1.3,3.4-1.9,5.3-1.9
	c1.4,0,2.9,0.5,4.3,1.6c1.7,1.6,2.5,3.3,2.5,5.3c0,1.7-0.7,3.2-2.1,4.5c-4.3,3.6-9.7,6.7-16.4,9.1c-6.6,2.4-13,3.6-19.1,3.6
	c-10.4,0-19.7-2.3-27.9-6.9c-8.2-4.6-14.6-11-19.2-19.3c-4.6-8.3-6.9-17.6-6.9-28c0-10.5,2.2-19.9,6.5-28.2
	c4.4-8.3,10.4-14.7,18.1-19.3c7.7-4.6,16.5-6.9,26.4-6.9C516.4,133.2,524.9,135.5,532.3,139.9z M482.2,155.8
	c-6.5,6.1-10.5,14.2-11.9,24.2h71.4c-1-10-4.7-18.1-10.9-24.2c-6.2-6.1-14.2-9.2-24-9.2C496.9,146.7,488.7,149.7,482.2,155.8z"/>
<path d="M68,207.9h15.2l0.1,26.6v30.2h22c2.1,0,3.7,0.6,5,1.9c1.2,1.2,1.9,2.8,1.9,4.8c0,1.8-0.6,3.3-1.9,4.6
	c-1.2,1.2-2.9,1.9-5,1.9h-22v52.1c0,6.6,1.9,12.1,5.8,16.3c3.9,4.2,8.9,6.3,15,6.3h5.3c2.1,0,3.8,0.7,5.1,2.1
	c1.3,1.4,1.9,3.3,1.9,5.5c0,2.1-0.8,3.8-2.3,5.3c-1.6,1.4-3.5,2.1-5.8,2.1h-4.1c-6.9,0-13.1-1.7-18.5-5c-5.5-3.3-9.7-7.8-12.8-13.5
	c-3.1-5.7-4.6-12.1-4.6-19.2v-52.1H55.6c-2.1,0-3.7-0.6-5-1.9c-1.2-1.2-1.9-2.8-1.9-4.6c0-1.9,0.6-3.5,1.9-4.8
	c1.2-1.2,2.9-1.9,5-1.9h12.7v-30.2"/>
<path d="M186,261.8c3.2,1.4,4.8,3.4,4.8,6c0,0.8-0.1,1.4-0.2,1.8c-0.5,1.8-1.3,3.1-2.4,3.7c-1.1,0.7-2.6,1-4.6,1
	c-1.2,0-3.2-0.1-6-0.4c-1-0.1-2.6-0.2-4.7-0.2c-9.7,0-17.7,2.6-23.9,7.8c-6.2,5.2-9.3,12-9.3,20.3V360c0,2.3-0.7,4.2-2,5.5
	c-1.3,1.3-3.1,1.9-5.5,1.9c-2.3,0-4.2-0.6-5.5-1.9c-1.3-1.3-2-3.1-2-5.5v-91.8c0-2.3,0.7-4.2,2-5.5c1.3-1.3,3.1-1.9,5.5-1.9
	c2.3,0,4.2,0.7,5.5,1.9c1.3,1.3,2,3.1,2,5.5v8.6c3.8-5.5,8.6-9.7,14.4-12.7c5.8-3,12.1-4.5,18.9-4.5
	C178.5,259.6,182.8,260.3,186,261.8z"/>
<path d="M267.5,266.9c8.3,4.7,14.8,11.3,19.5,19.6c4.7,8.3,7.1,17.5,7.1,27.7V360c0,2.1-0.7,3.8-2.1,5.3c-1.4,1.4-3.3,2.1-5.5,2.1
	c-2.2,0-4-0.7-5.5-2c-1.4-1.4-2.1-3.1-2.1-5.4v-11.7c-4.6,6.2-10.3,11.1-17.3,14.7c-7,3.6-14.8,5.4-23.2,5.4
	c-9.9,0-18.8-2.4-26.8-7.1c-8-4.7-14.3-11.2-18.9-19.5c-4.6-8.3-6.9-17.4-6.9-27.6c0-10.1,2.4-19.4,7.1-27.7
	c4.7-8.3,11.2-14.8,19.5-19.6c8.3-4.7,17.4-7.1,27.6-7.1C250.1,259.8,259.3,262.2,267.5,266.9z M260,349.5c6-3.5,10.7-8.3,14.1-14.5
	c3.4-6.2,5.2-13.1,5.2-20.8c0-7.7-1.7-14.6-5.2-20.8c-3.4-6.2-8.2-11-14.1-14.6c-6-3.6-12.7-5.4-20.1-5.4c-7.4,0-14.1,1.8-20.2,5.4
	c-6,3.6-10.8,8.4-14.2,14.6c-3.4,6.2-5.2,13.1-5.2,20.8c0,7.7,1.7,14.6,5.2,20.8c3.4,6.2,8.2,11,14.2,14.5c6,3.5,12.8,5.3,20.2,5.3
	C247.3,354.8,254,353,260,349.5z"/>
<path d="M403.8,265.5c7.3,3.9,13.1,9.6,17.3,17.1c4.2,7.5,6.2,16.4,6.2,26.8V360c0,2.1-0.7,3.8-2.1,5.3c-1.4,1.4-3.2,2.1-5.3,2.1
	c-2.2,0-4-0.7-5.5-2.1c-1.4-1.4-2.1-3.2-2.1-5.3v-50.7c0-11.6-3.2-20.4-9.7-26.4c-6.4-6-14.8-9.1-25.2-9.1c-6.4,0-12.1,1.2-17.3,3.7
	c-5.1,2.5-9.2,5.9-12.2,10.2c-3,4.4-4.5,9.2-4.5,14.5V360c0,2.2-0.7,4-2,5.4s-3.2,2-5.4,2c-2.2,0-4-0.7-5.5-2
	c-1.4-1.4-2.1-3.1-2.1-5.4v-91.6c0-2.2,0.7-4,2.1-5.5c1.4-1.4,3.2-2.1,5.5-2.1c2.2,0,4,0.7,5.4,2.1c1.4,1.4,2,3.3,2,5.5v6.6
	c4.3-4.8,9.5-8.6,15.6-11.3c6.1-2.7,12.7-4.1,19.9-4.1C388.2,259.6,396.4,261.6,403.8,265.5z"/>
<path d="M479.5,364.3c-7.4-2.7-13.4-6.6-17.9-11.5c-1.3-1.6-1.9-3.1-1.9-4.5c0-2.2,1-4.2,3.1-5.8c1.6-1.2,3.2-1.8,4.9-1.8
	c2.2,0,4.1,0.9,5.7,2.7c3.1,3.6,7.2,6.4,12.4,8.4c5.1,1.9,10.8,2.9,17.1,2.9c9.1,0,15.9-1.6,20.5-4.7c4.5-3.1,6.9-7.2,7-12.3
	c0-4.7-2.3-8.6-6.8-11.7c-4.5-3.1-11.8-5.5-21.6-7c-12.7-2.1-22.3-5.7-28.6-10.8c-6.3-5.1-9.5-11.3-9.5-18.6c0-9.5,3.7-16.8,11-22
	c7.3-5.2,16.5-7.8,27.6-7.8c8.6,0,16,1.5,22.4,4.4c6.4,2.9,11.5,7,15.4,12.2c1,1.7,1.6,3.2,1.6,4.5c0,2.2-1,4-3.1,5.3
	c-0.9,0.7-2.1,1-3.7,1c-2.7,0-5-1-6.8-2.9c-6.4-7.3-15.1-10.9-26.1-10.9c-7.2,0-12.9,1.5-17.2,4.4c-4.3,2.9-6.4,6.6-6.4,11
	c0,4.7,2,8.4,6,11.2c4,2.8,11.2,5,21.4,6.7c13.9,2.3,23.8,6.1,29.8,11.4c6,5.3,9,11.8,9,19.6c0,6-1.8,11.3-5.4,16
	c-3.6,4.7-8.5,8.3-14.9,10.9c-6.4,2.6-13.6,3.9-21.6,3.9C494.7,368.4,486.9,367,479.5,364.3z"/>
<polyline class="st0" points="618.9,474.9 64,474.9 64,401.3 618.9,401.3 "/>
<text transform="matrix(1 0 0 1 63.9542 448.7834)" class="st1 st2 st3">We live logistics.</text>
<g>
	<path d="M565.3,263.3c1.7,1,3,2.3,4,4c1,1.7,1.5,3.5,1.5,5.5c0,2-0.5,3.9-1.5,5.5s-2.3,3-4,4c-1.7,1-3.5,1.4-5.4,1.4
		c-2,0-3.8-0.5-5.5-1.4c-1.7-1-3-2.3-4-3.9c-1-1.7-1.5-3.5-1.5-5.6c0-2,0.5-3.8,1.5-5.5c1-1.7,2.3-3,4-4c1.7-1,3.5-1.5,5.5-1.5
		C561.8,261.8,563.6,262.3,565.3,263.3z M564.1,280.2c1.3-0.8,2.4-1.8,3.2-3.2c0.8-1.3,1.2-2.8,1.2-4.3c0-1.6-0.4-3-1.2-4.3
		c-0.8-1.3-1.8-2.4-3.2-3.2c-1.3-0.8-2.8-1.2-4.3-1.2c-1.6,0-3,0.4-4.3,1.2s-2.4,1.8-3.2,3.2c-0.8,1.3-1.2,2.8-1.2,4.3
		c0,1.6,0.4,3,1.2,4.3c0.8,1.3,1.8,2.4,3.2,3.2c1.3,0.8,2.8,1.2,4.4,1.2C561.4,281.4,562.8,281,564.1,280.2z M564.4,277.4
		c0.1,0.3,0.2,0.5,0.2,0.7c0,0.3-0.1,0.5-0.3,0.6c-0.2,0.2-0.4,0.3-0.8,0.3c-0.2,0-0.4,0-0.6-0.1c-0.2-0.1-0.3-0.2-0.4-0.4l-2.6-4.3
		h-0.3h-1.8v3.8c0,0.3-0.1,0.6-0.3,0.8c-0.2,0.2-0.5,0.3-0.8,0.3s-0.6-0.1-0.8-0.3c-0.2-0.2-0.3-0.5-0.3-0.8v-11
		c0-0.3,0.1-0.6,0.3-0.8c0.2-0.2,0.5-0.3,0.9-0.3h2.8c1.3,0,2.5,0.4,3.3,1.1c0.9,0.8,1.3,1.7,1.3,2.9c0,0.8-0.2,1.5-0.6,2.1
		c-0.4,0.6-0.9,1.1-1.6,1.5L564.4,277.4z M557.9,272.2h1.9c0.7,0,1.2-0.2,1.6-0.6c0.4-0.4,0.6-0.9,0.6-1.6s-0.2-1.2-0.6-1.6
		s-0.9-0.6-1.6-0.6h-1.9V272.2z"/>
</g>
<g>
	<path d="M66,438.2c-0.4-0.4-0.6-0.9-0.6-1.5v-37.3c0-0.6,0.2-1.1,0.6-1.5c0.4-0.4,0.9-0.6,1.5-0.6H77c4,0,7.6,0.9,10.7,2.7
		c3.1,1.8,5.6,4.2,7.3,7.3s2.6,6.7,2.6,10.7c0,4-0.9,7.6-2.6,10.7c-1.7,3.1-4.2,5.6-7.3,7.4c-3.1,1.8-6.7,2.7-10.7,2.7h-9.5
		C66.9,438.8,66.4,438.6,66,438.2z M77,435.1c3.2,0,6.1-0.7,8.6-2.2c2.5-1.5,4.5-3.5,5.9-6.1c1.4-2.6,2.1-5.5,2.1-8.7
		c0-3.2-0.7-6.2-2.1-8.7c-1.4-2.6-3.4-4.6-5.9-6c-2.5-1.4-5.4-2.2-8.6-2.2h-7.5v34H77z"/>
	<path d="M121.5,410.1c0.9,0.4,1.3,0.9,1.3,1.6c0,0.2,0,0.4-0.1,0.5c-0.1,0.5-0.4,0.8-0.7,1c-0.3,0.2-0.7,0.3-1.2,0.3
		c-0.3,0-0.9,0-1.6-0.1c-0.3,0-0.7-0.1-1.3-0.1c-2.6,0-4.8,0.7-6.5,2.1c-1.7,1.4-2.5,3.3-2.5,5.5v15.8c0,0.6-0.2,1.1-0.5,1.5
		c-0.4,0.4-0.8,0.5-1.5,0.5s-1.1-0.2-1.5-0.5c-0.4-0.4-0.5-0.8-0.5-1.5v-25c0-0.6,0.2-1.1,0.5-1.5c0.4-0.4,0.8-0.5,1.5-0.5
		s1.1,0.2,1.5,0.5s0.5,0.8,0.5,1.5v2.3c1-1.5,2.3-2.6,3.9-3.4s3.3-1.2,5.1-1.2C119.4,409.5,120.6,409.7,121.5,410.1z"/>
	<path d="M129.1,403.4c-0.5-0.6-0.8-1.3-0.8-2.1c0-0.8,0.3-1.5,0.8-2.1c0.6-0.5,1.3-0.8,2.1-0.8c0.8,0,1.4,0.3,2,0.8
		c0.6,0.5,0.8,1.2,0.8,2.1c0,0.8-0.3,1.5-0.8,2.1c-0.6,0.6-1.3,0.8-2.1,0.8C130.3,404.3,129.7,404,129.1,403.4z M129.7,438.2
		c-0.4-0.4-0.6-0.9-0.6-1.5v-24.9c0-0.6,0.2-1.1,0.6-1.5c0.4-0.4,0.9-0.6,1.5-0.6s1.1,0.2,1.5,0.6c0.4,0.4,0.6,0.9,0.6,1.5v24.9
		c0,0.6-0.2,1.1-0.6,1.5s-0.9,0.6-1.5,0.6S130.1,438.6,129.7,438.2z"/>
	<path d="M166.5,411.6c0,0.2-0.1,0.5-0.2,0.7l-11.6,25c-0.5,0.9-1.1,1.4-2,1.4c-0.8,0-1.5-0.5-1.9-1.4l-11.8-25
		c-0.1-0.2-0.2-0.5-0.2-0.7c0-0.7,0.4-1.3,1.2-1.7c0.2-0.1,0.5-0.2,0.8-0.2c0.4,0,0.7,0.1,1,0.3c0.3,0.2,0.5,0.4,0.7,0.8l10.2,22
		l10.1-22c0.1-0.4,0.4-0.6,0.7-0.8c0.3-0.2,0.7-0.3,1.1-0.3c0.3,0,0.6,0.1,0.8,0.2C166.1,410.3,166.5,410.9,166.5,411.6z"/>
	<path d="M189.1,411.4c2,1.2,3.6,2.9,4.7,5.1c1.1,2.2,1.7,4.6,1.7,7.4c0,0.6-0.2,1-0.5,1.4s-0.8,0.5-1.4,0.5h-21.4
		c0.3,2.9,1.4,5.2,3.4,7c2,1.8,4.5,2.7,7.4,2.7c1.3,0,2.6-0.2,3.8-0.7c1.3-0.4,2.3-1,3.1-1.7c0.5-0.4,0.9-0.5,1.4-0.5
		c0.4,0,0.8,0.1,1.2,0.4c0.5,0.4,0.7,0.9,0.7,1.4c0,0.5-0.2,0.9-0.6,1.2c-1.2,1-2.6,1.8-4.5,2.5c-1.8,0.7-3.5,1-5.2,1
		c-2.8,0-5.4-0.6-7.6-1.9c-2.2-1.3-4-3-5.2-5.2s-1.9-4.8-1.9-7.6c0-2.9,0.6-5.4,1.8-7.7c1.2-2.2,2.8-4,4.9-5.2
		c2.1-1.3,4.5-1.9,7.2-1.9C184.8,409.5,187.1,410.1,189.1,411.4z M175.5,415.7c-1.8,1.7-2.8,3.9-3.2,6.6h19.4
		c-0.3-2.7-1.3-4.9-3-6.6c-1.7-1.7-3.9-2.5-6.5-2.5C179.5,413.2,177.3,414,175.5,415.7z"/>
	<path d="M222,411.1c2,1.1,3.6,2.6,4.7,4.6c1.1,2,1.7,4.5,1.7,7.3v13.8c0,0.6-0.2,1-0.6,1.4s-0.9,0.6-1.4,0.6
		c-0.6,0-1.1-0.2-1.5-0.6s-0.6-0.9-0.6-1.4V423c0-3.1-0.9-5.5-2.6-7.2c-1.7-1.6-4-2.5-6.9-2.5c-1.7,0-3.3,0.3-4.7,1
		c-1.4,0.7-2.5,1.6-3.3,2.8c-0.8,1.2-1.2,2.5-1.2,3.9v15.7c0,0.6-0.2,1.1-0.6,1.5c-0.4,0.4-0.9,0.6-1.5,0.6c-0.6,0-1.1-0.2-1.5-0.6
		s-0.6-0.9-0.6-1.5v-24.9c0-0.6,0.2-1.1,0.6-1.5c0.4-0.4,0.9-0.6,1.5-0.6c0.6,0,1.1,0.2,1.5,0.6c0.4,0.4,0.6,0.9,0.6,1.5v1.8
		c1.2-1.3,2.6-2.3,4.2-3.1c1.7-0.7,3.5-1.1,5.4-1.1C217.8,409.5,220,410,222,411.1z"/>
	<path d="M273.7,411.5c2.2,1.3,3.9,3.1,5.1,5.3c1.3,2.2,1.9,4.7,1.9,7.5s-0.6,5.3-1.9,7.5c-1.3,2.3-3.1,4-5.3,5.3
		c-2.2,1.3-4.7,1.9-7.5,1.9s-5.3-0.6-7.5-1.9c-2.2-1.3-4-3.1-5.3-5.3c-1.3-2.3-1.9-4.8-1.9-7.5v-12.5c0-0.2,0-0.4,0.1-0.5v-11.9
		c0-0.6,0.2-1.1,0.6-1.5c0.4-0.4,0.9-0.6,1.5-0.6c0.6,0,1.1,0.2,1.5,0.6c0.4,0.4,0.6,0.9,0.6,1.5V415c1.2-1.7,2.8-3,4.7-4
		c1.9-1,4-1.5,6.3-1.5C269.1,409.5,271.5,410.2,273.7,411.5z M271.5,433.9c1.6-1,2.9-2.3,3.9-4c0.9-1.7,1.4-3.6,1.4-5.6
		c0-2.1-0.5-4-1.4-5.6c-0.9-1.7-2.2-3-3.9-3.9c-1.6-1-3.5-1.4-5.5-1.4c-2.8,0-5.2,0.9-7.1,2.6c-2,1.8-3.1,4-3.5,6.8
		c0,0.1,0,0.2-0.1,0.3c0,0.3-0.1,0.7-0.1,1.3c0,2.1,0.5,4,1.4,5.6c0.9,1.7,2.2,3,3.8,4c1.6,1,3.4,1.5,5.5,1.5
		S269.8,434.8,271.5,433.9z"/>
	<path d="M311.1,411.5c0,0.3-0.1,0.6-0.2,1l-17.2,37.7c-0.3,0.8-0.8,1.2-1.5,1.2c-0.4,0-0.7-0.1-1-0.2c-0.8-0.3-1.2-0.8-1.2-1.6
		c0-0.3,0.1-0.6,0.2-1l5.2-11.6V437l-11.8-24.5c-0.1-0.3-0.2-0.6-0.2-1c0-0.7,0.4-1.3,1.2-1.6c0.3-0.1,0.6-0.2,1-0.2
		c0.7,0,1.3,0.4,1.6,1.1l10.3,21.8l9.9-21.7c0.4-0.8,0.9-1.2,1.6-1.2c0.3,0,0.6,0.1,1,0.2C310.7,410.3,311.1,410.8,311.1,411.5z"/>
	<path d="M331.1,436.2c-1.4-1.7-2-3.9-2-6.6v-30.2c0-0.6,0.2-1.1,0.6-1.5c0.4-0.4,0.9-0.6,1.4-0.6c0.6,0,1.1,0.2,1.5,0.6
		s0.6,0.9,0.6,1.5v30.2c0,1.5,0.3,2.8,0.9,3.7s1.4,1.4,2.4,1.4h1.3c0.5,0,1,0.2,1.3,0.6s0.5,0.9,0.5,1.5c0,0.6-0.2,1.1-0.7,1.5
		c-0.4,0.4-1,0.6-1.7,0.6h-0.7C334.2,438.8,332.5,437.9,331.1,436.2z"/>
	<path d="M348.9,437.1c-2.2-1.3-4-3-5.3-5.3c-1.3-2.2-1.9-4.8-1.9-7.6c0-2.8,0.6-5.3,1.9-7.6c1.3-2.3,3-4,5.3-5.3
		c2.2-1.3,4.8-1.9,7.6-1.9s5.3,0.6,7.5,1.9c2.2,1.3,4,3,5.3,5.3c1.3,2.3,1.9,4.8,1.9,7.6c0,2.8-0.6,5.3-1.9,7.6
		c-1.3,2.2-3,4-5.3,5.3c-2.2,1.3-4.8,1.9-7.6,1.9S351.2,438.4,348.9,437.1z M362,433.9c1.6-1,2.9-2.3,3.8-3.9
		c0.9-1.7,1.4-3.6,1.4-5.6c0-2.1-0.5-4-1.4-5.7c-0.9-1.7-2.2-3-3.8-3.9s-3.5-1.4-5.5-1.4c-2,0-3.8,0.5-5.5,1.4s-2.9,2.3-3.9,3.9
		c-0.9,1.7-1.4,3.6-1.4,5.7c0,2.1,0.5,4,1.4,5.6c0.9,1.7,2.2,3,3.9,3.9s3.5,1.4,5.5,1.4C358.5,435.3,360.3,434.9,362,433.9z"/>
	<path d="M399.1,411.4c2.2,1.3,4,3,5.2,5.2c1.3,2.2,1.9,4.8,1.9,7.7v10.8c0,2.8-0.6,5.4-1.9,7.7c-1.3,2.3-3,4.1-5.2,5.4
		c-2.2,1.3-4.7,2-7.5,2c-2.7,0-5.1-0.5-7.3-1.5c-2.1-1-3.9-2.5-5.4-4.3c-0.3-0.4-0.5-0.8-0.5-1.2c0-0.5,0.2-1,0.7-1.4
		c0.4-0.2,0.7-0.4,1.2-0.4c0.3,0,0.6,0.1,1,0.2c0.3,0.2,0.6,0.4,0.7,0.6c1.1,1.3,2.4,2.4,4,3.1c1.6,0.7,3.5,1.1,5.5,1.1
		c2,0,3.8-0.5,5.4-1.5c1.6-1,2.9-2.3,3.8-4.1s1.4-3.8,1.4-6v-2.4c-1.1,2-2.6,3.6-4.5,4.7c-1.9,1.1-4.2,1.7-6.6,1.7
		c-2.8,0-5.2-0.6-7.4-1.9c-2.2-1.3-3.9-3-5.1-5.2s-1.8-4.8-1.8-7.6c0-2.9,0.6-5.4,1.9-7.7c1.3-2.2,3-4,5.3-5.2
		c2.2-1.3,4.8-1.9,7.6-1.9C394.3,409.5,396.8,410.1,399.1,411.4z M397,433.9c1.6-0.9,2.9-2.2,3.8-3.9c0.9-1.7,1.4-3.6,1.4-5.7
		c0-2.1-0.5-4-1.4-5.7c-0.9-1.7-2.2-3-3.8-3.9s-3.5-1.4-5.5-1.4c-2.1,0-3.9,0.5-5.6,1.4c-1.6,1-2.9,2.3-3.8,3.9
		c-0.9,1.7-1.4,3.6-1.4,5.7c0,2.1,0.5,4,1.4,5.7c0.9,1.7,2.2,3,3.8,3.9c1.6,0.9,3.5,1.4,5.6,1.4C393.5,435.3,395.4,434.9,397,433.9z
		"/>
	<path d="M414.1,403.4c-0.5-0.6-0.8-1.3-0.8-2.1c0-0.8,0.3-1.5,0.8-2.1c0.6-0.5,1.3-0.8,2.1-0.8c0.8,0,1.4,0.3,2,0.8
		c0.6,0.5,0.8,1.2,0.8,2.1c0,0.8-0.3,1.5-0.8,2.1c-0.6,0.6-1.3,0.8-2.1,0.8C415.4,404.3,414.7,404,414.1,403.4z M414.8,438.2
		c-0.4-0.4-0.6-0.9-0.6-1.5v-24.9c0-0.6,0.2-1.1,0.6-1.5c0.4-0.4,0.9-0.6,1.5-0.6s1.1,0.2,1.5,0.6c0.4,0.4,0.6,0.9,0.6,1.5v24.9
		c0,0.6-0.2,1.1-0.6,1.5s-0.9,0.6-1.5,0.6S415.1,438.6,414.8,438.2z"/>
	<path d="M431.6,437.9c-2-0.7-3.6-1.8-4.9-3.1c-0.4-0.4-0.5-0.8-0.5-1.2c0-0.6,0.3-1.1,0.8-1.6c0.4-0.3,0.9-0.5,1.3-0.5
		c0.6,0,1.1,0.2,1.5,0.7c0.8,1,2,1.7,3.4,2.3c1.4,0.5,2.9,0.8,4.6,0.8c2.5,0,4.3-0.4,5.6-1.3c1.2-0.8,1.9-2,1.9-3.3
		c0-1.3-0.6-2.3-1.9-3.2c-1.2-0.8-3.2-1.5-5.9-1.9c-3.5-0.6-6.1-1.5-7.8-2.9c-1.7-1.4-2.6-3.1-2.6-5.1c0-2.6,1-4.6,3-6
		c2-1.4,4.5-2.1,7.5-2.1c2.3,0,4.4,0.4,6.1,1.2c1.7,0.8,3.1,1.9,4.2,3.3c0.3,0.5,0.4,0.9,0.4,1.2c0,0.6-0.3,1.1-0.8,1.4
		c-0.2,0.2-0.6,0.3-1,0.3c-0.7,0-1.4-0.3-1.9-0.8c-1.7-2-4.1-3-7.1-3c-1.9,0-3.5,0.4-4.7,1.2c-1.2,0.8-1.7,1.8-1.7,3
		c0,1.3,0.5,2.3,1.6,3c1.1,0.8,3,1.4,5.8,1.8c3.8,0.6,6.5,1.7,8.1,3.1c1.6,1.4,2.4,3.2,2.4,5.3c0,1.6-0.5,3.1-1.5,4.3
		c-1,1.3-2.3,2.3-4.1,3c-1.7,0.7-3.7,1.1-5.9,1.1S433.6,438.7,431.6,437.9z"/>
	<path d="M469.7,435.3c0.4,0.4,0.5,0.9,0.5,1.5c0,0.6-0.2,1-0.6,1.4c-0.4,0.4-1,0.6-1.6,0.6h-1.1c-1.9,0-3.6-0.5-5-1.4
		c-1.5-0.9-2.6-2.1-3.5-3.7c-0.8-1.5-1.2-3.3-1.2-5.2v-14.2h-3.4c-0.6,0-1-0.2-1.4-0.5c-0.3-0.3-0.5-0.8-0.5-1.2
		c0-0.5,0.2-1,0.5-1.3c0.3-0.3,0.8-0.5,1.4-0.5h3.4v-8.2c0-0.6,0.2-1.1,0.6-1.5c0.4-0.4,0.9-0.6,1.5-0.6c0.6,0,1.1,0.2,1.5,0.6
		c0.4,0.4,0.6,0.9,0.6,1.5v8.2h6c0.6,0,1,0.2,1.4,0.5c0.3,0.3,0.5,0.8,0.5,1.3c0,0.5-0.2,0.9-0.5,1.2c-0.3,0.3-0.8,0.5-1.4,0.5h-6
		v14.2c0,1.8,0.5,3.3,1.6,4.4c1.1,1.1,2.4,1.7,4.1,1.7h1.4C468.9,434.7,469.3,434.9,469.7,435.3z"/>
	<path d="M476.8,403.4c-0.5-0.6-0.8-1.3-0.8-2.1c0-0.8,0.3-1.5,0.8-2.1c0.6-0.5,1.3-0.8,2.1-0.8c0.8,0,1.4,0.3,2,0.8
		c0.6,0.5,0.8,1.2,0.8,2.1c0,0.8-0.3,1.5-0.8,2.1c-0.6,0.6-1.3,0.8-2.1,0.8C478,404.3,477.3,404,476.8,403.4z M477.4,438.2
		c-0.4-0.4-0.6-0.9-0.6-1.5v-24.9c0-0.6,0.2-1.1,0.6-1.5c0.4-0.4,0.9-0.6,1.5-0.6s1.1,0.2,1.5,0.6c0.4,0.4,0.6,0.9,0.6,1.5v24.9
		c0,0.6-0.2,1.1-0.6,1.5s-0.9,0.6-1.5,0.6S477.8,438.6,477.4,438.2z"/>
	<path d="M496,437.1c-2.2-1.3-3.9-3.1-5.2-5.3c-1.3-2.2-1.9-4.7-1.9-7.5c0-2.8,0.6-5.4,1.8-7.6c1.2-2.2,2.9-4,5-5.3
		c2.1-1.3,4.5-1.9,7.2-1.9c4.4,0,8,1.7,10.8,5.1c0.3,0.3,0.4,0.7,0.4,1.1c0,0.6-0.3,1.1-0.9,1.5c-0.3,0.2-0.7,0.3-1,0.3
		c-0.5,0-1-0.3-1.5-0.8c-1.1-1.2-2.2-2-3.5-2.6c-1.3-0.6-2.7-0.9-4.2-0.9c-1.9,0-3.7,0.5-5.2,1.4c-1.5,0.9-2.7,2.3-3.5,3.9
		s-1.2,3.6-1.2,5.7c0,2.1,0.4,4,1.3,5.6c0.9,1.7,2.1,3,3.7,3.9s3.4,1.4,5.5,1.4c2.8,0,5.1-0.8,6.8-2.3c0.5-0.4,0.9-0.6,1.4-0.6
		c0.4,0,0.8,0.1,1.2,0.4c0.5,0.4,0.7,0.9,0.7,1.4c0,0.5-0.2,0.8-0.5,1.2c-2.5,2.4-5.8,3.6-9.6,3.6C500.6,439,498.1,438.4,496,437.1z
		"/>
	<path d="M525,437.9c-2-0.7-3.6-1.8-4.9-3.1c-0.4-0.4-0.5-0.8-0.5-1.2c0-0.6,0.3-1.1,0.8-1.6c0.4-0.3,0.9-0.5,1.3-0.5
		c0.6,0,1.1,0.2,1.5,0.7c0.8,1,2,1.7,3.4,2.3c1.4,0.5,2.9,0.8,4.6,0.8c2.5,0,4.3-0.4,5.6-1.3c1.2-0.8,1.9-2,1.9-3.3
		c0-1.3-0.6-2.3-1.9-3.2c-1.2-0.8-3.2-1.5-5.9-1.9c-3.5-0.6-6.1-1.5-7.8-2.9c-1.7-1.4-2.6-3.1-2.6-5.1c0-2.6,1-4.6,3-6
		c2-1.4,4.5-2.1,7.5-2.1c2.3,0,4.4,0.4,6.1,1.2c1.7,0.8,3.1,1.9,4.2,3.3c0.3,0.5,0.4,0.9,0.4,1.2c0,0.6-0.3,1.1-0.8,1.4
		c-0.2,0.2-0.6,0.3-1,0.3c-0.7,0-1.4-0.3-1.9-0.8c-1.7-2-4.1-3-7.1-3c-1.9,0-3.5,0.4-4.7,1.2c-1.2,0.8-1.7,1.8-1.7,3
		c0,1.3,0.5,2.3,1.6,3c1.1,0.8,3,1.4,5.8,1.8c3.8,0.6,6.5,1.7,8.1,3.1c1.6,1.4,2.4,3.2,2.4,5.3c0,1.6-0.5,3.1-1.5,4.3
		c-1,1.3-2.3,2.3-4.1,3c-1.7,0.7-3.7,1.1-5.9,1.1S527,438.7,525,437.9z"/>
	<path d="M547.7,438.7c-0.6-0.6-0.9-1.3-0.9-2.2c0-0.9,0.3-1.6,0.9-2.2c0.6-0.6,1.3-0.9,2.1-0.9c0.8,0,1.6,0.3,2.2,0.9
		c0.6,0.6,0.9,1.4,0.9,2.2c0,0.8-0.3,1.6-0.9,2.2c-0.6,0.6-1.3,0.9-2.2,0.9C549,439.6,548.3,439.3,547.7,438.7z"/>
</g>
</svg>
