<?xml version="1.0" encoding="utf-8"?>
<!-- Generator: Adobe Illustrator 28.0.0, SVG Export Plug-In . SVG Version: 6.00 Build 0)  -->
<svg version="1.1" id="Ebene_1" xmlns="http://www.w3.org/2000/svg" xmlns:xlink="http://www.w3.org/1999/xlink" x="0px" y="0px"
	 viewBox="0 0 729.7 162.6" style="enable-background:new 0 0 729.7 162.6;" xml:space="preserve">
<g>
	<path d="M729.7,38.3V24.7C729.7,9,724.5,0,706.4,0h-18.7c-18.1,0-23.3,9-23.3,24.7v13.6c0,16.1,5.2,25,23.3,25h18.7
		C724.5,63.3,729.7,54.4,729.7,38.3L729.7,38.3z M711,40.5c0,3.8-1.2,6.5-3.7,8.3c-2.5,1.7-5.9,2.6-10.3,2.6
		c-4.3,0-7.7-0.9-10.2-2.6c-2.5-1.8-3.7-4.5-3.7-8.3c0-3.8,1.2-6.5,3.7-8.3c1.6-1.1,3.6-1.9,6-2.3V19.7h-4.4v-7.9h13.3V30
		c2.2,0.4,4.1,1.1,5.6,2.2C709.8,34,711,36.8,711,40.5L711,40.5z M704.1,40.5c0-1.5-0.6-2.5-1.8-3c-1.2-0.5-2.9-0.7-5.2-0.7
		c-2.3,0-4,0.2-5.2,0.7c-1.2,0.5-1.8,1.5-1.8,2.9c0,1.5,0.6,2.5,1.8,2.9c1.2,0.5,2.9,0.7,5.2,0.7c2.3,0,4.1-0.2,5.2-0.7
		C703.5,43,704.1,42,704.1,40.5L704.1,40.5z"/>
	<path d="M654.2,92.1V79.2c0-22.6-5-34.1-32.3-34.1h-21.7C573,45.1,568,56.6,568,79.2v18.6c0,22.9,5,34.6,32.3,34.6h50.6
		c1.7,0,2.8-1.2,2.8-2.8V125c0-1.6-1.2-2.8-2.8-2.8h-50.4c-18.2,0-21.9-4-21.9-23.9v-3.3h72.9C653,94.9,654.2,93.8,654.2,92.1
		L654.2,92.1z M643.7,85h-65.2v-6.3c0-19.5,3.7-23.5,21.9-23.5h21.3c18.2,0,21.9,3.9,21.9,23.5V85L643.7,85z"/>
	<path d="M559.9,129.6v-4.5c0-1.7-1.2-2.8-2.8-2.8h-14.3c-19,0-24.2-4.8-24.2-22.5V55.1h38.5c1.7,0,2.8-1.2,2.8-2.8v-4.5
		c0-1.7-1.2-2.8-2.8-2.8h-38.5V25.8c0-1.7-1.2-2.8-2.8-2.8h-2.2c-1.7,0-2.8,1.2-2.8,3c0,18.4-0.5,19.2-14.4,19.2
		c-1.7,0-2.8,1.1-2.8,2.8v4.5c0,1.7,1.2,2.8,2.8,2.8h11.8v44.2c0,20.9,5.7,33.1,34.6,33.1h14.3C558.7,132.4,559.9,131.2,559.9,129.6
		L559.9,129.6z"/>
	<path d="M484.1,128V48c0-1.7-1.2-2.8-2.8-2.8h-4.9c-1.6,0-2.8,1.2-2.8,2.8v49.1c0,16.9-3,23.9-21.8,23.9h-22.7
		c-18.1,0-21.8-4-21.8-23.9V47.9c0-1.7-1.2-2.8-2.8-2.8h-4.9c-1.7,0-2.8,1.2-2.8,2.8v48.8c0,22.9,5,34.6,32.3,34.6h19
		c14.5,0,22-3.1,25.5-11v8.2c0,16.2-3.3,23.9-22.4,23.9h-43c-1.6,0-2.8,1.2-2.8,2.8v4.6c0,1.6,1.2,2.8,2.8,2.8h43
		C478.5,162.6,484.1,148.8,484.1,128L484.1,128z"/>
	<path d="M384.4,98.3V79.7c0-22.9-5-34.6-32.3-34.6h-21.5c-14.3,0-22,3.1-25.6,10.7V14.8c0-1.7-1.2-2.8-2.8-2.8h-4.9
		c-1.6,0-2.8,1.2-2.8,2.8v114.8c0,1.7,1.2,2.8,2.8,2.8h4.9c1.6,0,2.8-1.2,2.8-2.8v-7.9c3.6,7.6,11.3,10.7,25.6,10.7h21.5
		C379.4,132.4,384.4,120.9,384.4,98.3L384.4,98.3z M373.9,98.7c0,19.3-3.9,23.5-21.8,23.5H327c-15.2,0-21.9-3.4-21.9-23.5V79.2
		c0-20.6,6.5-23.9,21.9-23.9h25.2c18.1,0,21.8,4,21.8,23.9V98.7L373.9,98.7z"/>
	<path d="M20.3,81.4v-4c0-10.4,2.6-12.9,12-12.9H53c9.4,0,12,2.5,12,12.9v4H20.3L20.3,81.4z M31.8,131.9h46.6c2.5,0,3.8-1.4,3.8-3.8
		v-11.2c0-2.5-1.4-3.8-3.8-3.8H32.2c-9.2,0-12-2.5-12-13.1v-3.1h61.1c2.5,0,3.8-1.4,3.8-3.8V79.2c0-21.3-7.1-33.6-31.8-33.6H31.8
		C7.1,45.6,0,57.9,0,79.2v18.6C0,119.8,7.1,131.9,31.8,131.9"/>
	<path d="M126.6,131.9h25.5c21.5,0,30.7-8.6,31.6-30.7c0.2-2.6-1.2-4-3.7-4h-12.6c-2.5,0-3.8,1.4-3.8,4c-0.5,9.4-2.6,11.8-12,11.8
		h-24.6c-9.2,0-12-2.5-12-13.1V77.4c0-10.4,2.6-12.9,12-12.9h24.6c9.1,0,11.5,2.3,12,11.5c0,2.6,1.4,4,3.8,4h12.6
		c2.5,0,3.8-1.4,3.7-4c-0.9-21.2-9.8-30.4-31.6-30.4h-25.5c-24.7,0-31.8,12.3-31.8,33.6v18.6C94.8,119.8,101.9,131.9,126.6,131.9"/>
	<path d="M225.6,113c-9.2,0-12-2.5-12-13.1V77.4c0-10.4,2.6-12.9,12-12.9h24.6c9.4,0,12,2.5,12,12.9v22.6c0,10.6-2.8,13.1-12,13.1
		H225.6L225.6,113z M193.4,97.8c0,22,7.1,34.1,31.8,34.1h25.5c24.7,0,31.8-12.1,31.8-34.1V79.2c0-21.3-7.1-33.6-31.8-33.6h-25.5
		c-24.7,0-31.8,12.3-31.8,33.6"/>
</g>
</svg>
